{"title":"The Great Gatsby 2013 720p BluRay DTS x264 SilverTorrentHD","uid":8799130,"size":4066887661,"categoryP":"video","categoryS":"hd___movies","magnet":"?xt=urn:btih:33ebac8cb5016b44eef70a9c985bc46c68c3c635&amp;dn=The+Great+Gatsby+2013+720p+BluRay+DTS+x264+SilverTorrentHD&amp;tr=udp%3A%2F%2Ftracker.openbittorrent.com%3A80&amp;tr=udp%3A%2F%2Fopen.demonii.com%3A1337&amp;tr=udp%3A%2F%2Ftracker.coppersurfer.tk%3A6969&amp;tr=udp%3A%2F%2Fexodus.desync.com%3A6969","seeders":1,"leechers":0,"uploader":"AliBaloch","files":-1,"time":1376152330,"description":" &lt;a href=&quot;http://i874.photobucket.com/albums/ab306/worldwide7477/Custom%20Covers/STHD-Cover_zpsaeb03a75.png&quot; rel=&quot;nofollow&quot; target=&quot;_NEW&quot;&gt;http://i874.photobucket.com/albums/ab306/worldwide7477/Custom%20Covers/STHD-Cover_zpsaeb03a75.png&lt;/a&gt;\n\n\nComplete name                            : C:UsersUserVideosThe Great Gatsby 2013 720p BluRay DTS x264 SilverTorrentHDThe Great Gatsby 2013 720p BluRay DTS x264 SilverTorrentHD.mkv\nFormat                                   : Matroska\nFormat version                           : Version 4 / Version 2\nFile size                                : 3.73 GiB\nDuration                                 : 2h 22mn\nOverall bit rate                         : 3 756 Kbps\nMovie name                               : The Great Gatsby 2013 Encoder Worldwide7477\n\nVideo\nID                                       : 1\nFormat                                   : AVC\nFormat/Info                              : Advanced Video Codec\nFormat profile                           : &lt;a class=&quot;__cf_email__&quot; href=&quot;/cdn-cgi/l/email-protection&quot; data-cfemail=&quot;fdb5949a95bdb1c9d3cc&quot;&gt;[email&amp;#160;protected]&lt;/a&gt;&lt;script cf-hash='f9e31' type=&quot;text/javascript&quot;&gt;\n/* &lt;![CDATA[ */!function(){try{var t=&quot;currentScript&quot;in document?document.currentScript:function(){for(var t=document.getElementsByTagName(&quot;script&quot;),e=t.length;e--;)if(t[e].getAttribute(&quot;cf-hash&quot;))return t[e]}();if(t&amp;&amp;t.previousSibling){var e,r,n,i,c=t.previousSibling,a=c.getAttribute(&quot;data-cfemail&quot;);if(a){for(e=&quot;&quot;,r=parseInt(a.substr(0,2),16),n=2;a.length-n;n+=2)i=parseInt(a.substr(n,2),16)^r,e+=String.fromCharCode(i);e=document.createTextNode(e),c.parentNode.replaceChild(e,c)}}}catch(u){}}();/* ]]&gt; */&lt;/script&gt;\nFormat settings, CABAC                   : Yes\nFormat settings, ReFrames                : 4 frames\nCodec ID                                 : V_MPEG4/ISO/AVC\nDuration                                 : 2h 22mn\nBit rate                                 : 2 999 Kbps\nWidth                                    : 1 264 pixels\nHeight                                   : 528 pixels\nDisplay aspect ratio                     : 2.40:1\nFrame rate mode                          : Constant\nFrame rate                               : 23.976 fps\nColor space                              : YUV\nChroma subsampling                       : 4:2:0\nBit depth                                : 8 bits\nScan type                                : Progressive\nBits/(Pixel*Frame)                       : 0.187\nStream size                              : 2.90 GiB (78%)\nTitle                                    : The Great Gatsby 2013 720p BluRay DTS x264 SilverTorrentHD\nLanguage                                 : English\nDefault                                  : Yes\nForced                                   : No\n\nAudio\nID                                       : 2\nFormat                                   : DTS\nFormat/Info                              : Digital Theater Systems\nMode                                     : 16\nFormat settings, Endianness              : Big\nCodec ID                                 : A_DTS\nDuration                                 : 2h 22mn\nBit rate mode                            : Constant\nBit rate                                 : 755 Kbps\nChannel(s)                               : 6 channels\nChannel positions                        : Front: L C R, Side: L R, LFE\nSampling rate                            : 48.0 KHz\nBit depth                                : 24 bits\nCompression mode                         : Lossy\nStream size                              : 767 MiB (20%)\nTitle                                    : Worldwide7477 (DTS)\nLanguage                                 : English\nDefault                                  : Yes\nForced                                   : No\n\nText\nID                                       : 3\nFormat                                   : UTF-8\nCodec ID                                 : S_TEXT/UTF8\nCodec ID/Info                            : UTF-8 Plain Text\nTitle                                    : Worldwide7477\nLanguage                                 : English\nDefault                                  : Yes\nForced                                   : No\n &lt;a href=&quot;\nhttp://img593.imageshack.us/img593/8302/c8f.png&quot; rel=&quot;nofollow&quot; target=&quot;_NEW&quot;&gt;\nhttp://img593.imageshack.us/img593/8302/c8f.png&lt;/a&gt;\n &lt;a href=&quot;\nhttp://img841.imageshack.us/img841/3996/4li.png&quot; rel=&quot;nofollow&quot; target=&quot;_NEW&quot;&gt;\nhttp://img841.imageshack.us/img841/3996/4li.png&lt;/a&gt;\n &lt;a href=&quot;\nhttp://img42.imageshack.us/img42/246/8plo.png&quot; rel=&quot;nofollow&quot; target=&quot;_NEW&quot;&gt;\nhttp://img42.imageshack.us/img42/246/8plo.png&lt;/a&gt;\n &lt;a href=&quot;\nhttp://img560.imageshack.us/img560/6070/ozha.png&quot; rel=&quot;nofollow&quot; target=&quot;_NEW&quot;&gt;\nhttp://img560.imageshack.us/img560/6070/ozha.png&lt;/a&gt;\n &lt;a href=&quot;\nhttp://img202.imageshack.us/img202/2980/rt6o.png&quot; rel=&quot;nofollow&quot; target=&quot;_NEW&quot;&gt;\nhttp://img202.imageshack.us/img202/2980/rt6o.png&lt;/a&gt;\n &lt;a href=&quot;\nhttp://img713.imageshack.us/img713/188/ujat.png&quot; rel=&quot;nofollow&quot; target=&quot;_NEW&quot;&gt;\nhttp://img713.imageshack.us/img713/188/ujat.png&lt;/a&gt;","torrent":{"xt":"urn:btih:33ebac8cb5016b44eef70a9c985bc46c68c3c635","amp;dn":"The+Great+Gatsby+2013+720p+BluRay+DTS+x264+SilverTorrentHD","amp;tr":["udp%3A%2F%2Ftracker.openbittorrent.com%3A80","udp%3A%2F%2Fopen.demonii.com%3A1337","udp%3A%2F%2Ftracker.coppersurfer.tk%3A6969","udp%3A%2F%2Fexodus.desync.com%3A6969"],"infoHash":"33ebac8cb5016b44eef70a9c985bc46c68c3c635","infoHashBuffer":{"type":"Buffer","data":[51,235,172,140,181,1,107,68,238,247,10,156,152,91,196,108,104,195,198,53]},"announce":[],"urlList":[]}}